<?xml version="1.0" encoding="UTF-8" ?>
<!DOCTYPE svg PUBLIC "-//W3C//DTD SVG 1.1//EN" "http://www.w3.org/Graphics/SVG/1.1/DTD/svg11.dtd">
<svg width="1024pt" height="1024pt" viewBox="0 0 1024 1024" version="1.1" xmlns="http://www.w3.org/2000/svg">
<g id="#fbfbfbff">
<path fill="#fbfbfb" opacity="1.00" d=" M 272.02 182.93 C 272.45 166.90 287.00 153.13 302.94 153.01 C 400.93 152.98 498.92 153.01 596.91 153.00 C 597.74 154.52 598.09 156.21 597.99 157.94 C 597.95 186.96 598.03 215.98 597.96 244.99 C 596.64 261.87 610.62 279.23 628.01 279.41 C 662.33 279.35 696.65 279.42 730.97 279.40 C 733.64 278.88 733.89 282.07 733.82 283.95 C 733.77 365.30 733.81 446.65 733.79 528.00 C 733.82 535.18 734.08 542.60 731.48 549.42 C 727.29 561.13 716.36 570.18 704.03 571.91 C 696.70 572.52 689.34 572.24 682.00 572.31 C 560.01 572.29 438.01 572.36 316.02 572.28 C 303.83 572.60 291.34 568.07 282.95 559.06 C 275.85 551.59 271.86 541.30 272.00 531.00 C 272.01 414.98 271.98 298.95 272.02 182.93 M 392.38 211.51 C 378.64 213.67 365.89 221.47 357.73 232.74 C 349.24 244.08 345.54 258.96 347.91 272.95 C 350.04 287.78 358.98 301.38 371.56 309.46 C 383.42 317.33 398.36 320.05 412.30 317.41 C 425.39 314.75 437.20 306.68 444.71 295.66 C 453.86 282.55 456.47 265.27 452.03 249.96 C 448.16 236.07 438.38 224.01 425.73 217.14 C 415.62 211.67 403.71 209.76 392.38 211.51 M 522.31 305.28 C 514.80 307.06 509.20 312.73 504.45 318.48 C 479.91 344.94 455.25 371.29 430.97 397.99 C 427.88 401.24 425.21 405.47 420.63 406.70 C 417.83 407.55 415.10 405.69 413.20 403.80 C 402.59 393.08 391.96 382.36 381.62 371.37 C 376.32 365.58 367.72 362.55 360.10 365.06 C 352.04 367.45 347.02 374.68 341.50 380.49 C 330.20 392.54 319.08 404.75 307.74 416.75 C 304.94 419.92 300.86 422.64 300.02 427.01 C 299.95 463.01 300.02 499.02 299.99 535.02 C 300.04 539.73 304.36 543.81 308.98 544.01 C 389.65 543.99 470.33 544.02 551.00 543.99 C 556.29 543.55 560.35 538.29 559.95 533.07 C 559.92 466.02 559.95 398.97 559.93 331.93 C 559.78 323.28 551.49 318.48 546.32 312.68 C 540.36 306.10 530.97 303.02 522.31 305.28 M 592.36 341.34 C 589.08 342.57 586.63 345.65 586.05 349.09 C 585.81 353.35 585.80 357.64 586.08 361.91 C 586.77 367.11 591.88 370.73 596.99 370.42 C 628.99 370.45 660.99 370.40 692.99 370.45 C 696.82 370.51 701.29 370.03 703.71 366.64 C 706.82 362.76 705.91 357.54 706.04 352.94 C 706.24 348.85 704.61 344.34 701.00 342.13 C 698.64 340.57 695.69 340.71 692.99 340.57 C 661.66 340.52 630.34 340.61 599.01 340.51 C 596.78 340.59 594.48 340.58 592.36 341.34 M 594.28 398.22 C 589.44 399.23 585.49 403.91 585.93 408.94 C 586.24 413.50 584.95 418.51 587.35 422.67 C 589.20 426.08 593.10 428.11 596.95 428.02 C 629.65 427.99 662.35 427.99 695.05 428.02 C 700.58 428.33 705.75 423.52 705.97 418.01 C 706.06 414.37 706.15 410.72 705.90 407.09 C 705.17 401.91 700.32 397.86 695.09 398.01 C 672.06 397.98 649.03 398.01 626.00 398.00 C 615.43 398.16 604.82 397.68 594.28 398.22 M 594.39 456.50 C 589.86 457.25 586.14 461.35 585.98 465.95 C 585.89 469.93 585.78 473.92 586.07 477.90 C 586.92 482.98 591.90 486.65 596.99 486.34 C 628.66 486.45 660.33 486.31 691.99 486.42 C 694.98 486.34 698.20 486.47 700.84 484.81 C 704.07 482.73 706.07 478.92 706.01 475.08 C 705.88 470.37 706.88 465.14 704.10 460.97 C 701.82 457.26 697.16 456.01 693.06 456.02 C 661.69 456.02 630.31 456.04 598.94 456.00 C 597.40 456.02 595.87 456.12 594.39 456.50 M 592.35 514.28 C 588.76 515.60 586.12 519.16 585.98 522.99 C 585.89 526.98 585.86 530.98 586.03 534.97 C 586.71 540.13 591.71 544.28 596.92 544.02 C 618.63 544.00 640.34 543.99 662.05 544.02 C 665.36 544.08 668.57 542.24 670.49 539.58 C 672.63 536.51 672.48 532.57 672.62 528.99 C 672.57 524.96 672.88 520.29 669.84 517.17 C 667.71 514.54 664.30 513.44 661.00 513.51 C 640.34 513.46 619.67 513.57 599.01 513.45 C 596.77 513.47 594.48 513.54 592.35 514.28 Z" />
<path fill="#fbfbfb" opacity="1.00" d=" M 628.02 169.74 C 654.53 196.07 681.03 222.43 707.39 248.89 C 683.92 248.81 660.43 248.91 636.96 248.88 C 632.23 248.98 627.72 244.90 628.02 240.05 C 627.99 216.61 627.98 193.17 628.02 169.74 Z" />
</g>
<g id="#1f68a5ff">
<path fill="#1f68a5" opacity="1.00" d=" M 295.38 122.41 C 298.89 121.82 302.46 122.01 306.00 122.00 C 407.35 122.01 508.71 121.99 610.06 122.01 C 617.88 122.30 626.04 124.64 631.51 130.54 C 672.23 170.12 711.83 210.86 752.64 250.37 C 760.50 257.60 763.71 268.50 763.59 278.94 C 763.63 362.29 763.60 445.65 763.59 529.00 C 763.56 539.27 764.23 549.84 760.72 559.69 C 754.89 577.87 739.96 592.59 722.10 599.05 C 714.11 602.04 705.49 602.67 697.03 603.00 C 568.02 603.01 439.01 602.98 310.00 603.01 C 293.95 603.32 277.71 598.05 265.39 587.64 C 249.38 574.56 240.73 553.54 242.00 533.00 C 242.00 418.00 242.00 303.00 242.00 188.00 C 241.89 179.16 242.78 170.19 245.75 161.81 C 253.26 140.78 273.11 124.83 295.38 122.41 M 272.02 182.93 C 271.98 298.95 272.01 414.98 272.00 531.00 C 271.86 541.30 275.85 551.59 282.95 559.06 C 291.34 568.07 303.83 572.60 316.02 572.28 C 438.01 572.36 560.01 572.29 682.00 572.31 C 689.34 572.24 696.70 572.52 704.03 571.91 C 716.36 570.18 727.29 561.13 731.48 549.42 C 734.08 542.60 733.82 535.18 733.79 528.00 C 733.81 446.65 733.77 365.30 733.82 283.95 C 733.89 282.07 733.64 278.88 730.97 279.40 C 696.65 279.42 662.33 279.35 628.01 279.41 C 610.62 279.23 596.64 261.87 597.96 244.99 C 598.03 215.98 597.95 186.96 597.99 157.94 C 598.09 156.21 597.74 154.52 596.91 153.00 C 498.92 153.01 400.93 152.98 302.94 153.01 C 287.00 153.13 272.45 166.90 272.02 182.93 M 628.02 169.74 C 627.98 193.17 627.99 216.61 628.02 240.05 C 627.72 244.90 632.23 248.98 636.96 248.88 C 660.43 248.91 683.92 248.81 707.39 248.89 C 681.03 222.43 654.53 196.07 628.02 169.74 Z" />
<path fill="#1f68a5" opacity="1.00" d=" M 392.38 211.51 C 403.71 209.76 415.62 211.67 425.73 217.14 C 438.38 224.01 448.16 236.07 452.03 249.96 C 456.47 265.27 453.86 282.55 444.71 295.66 C 437.20 306.68 425.39 314.75 412.30 317.41 C 398.36 320.05 383.42 317.33 371.56 309.46 C 358.98 301.38 350.04 287.78 347.91 272.95 C 345.54 258.96 349.24 244.08 357.73 232.74 C 365.89 221.47 378.64 213.67 392.38 211.51 Z" />
<path fill="#1f68a5" opacity="1.00" d=" M 522.31 305.28 C 530.97 303.02 540.36 306.10 546.32 312.68 C 551.49 318.48 559.78 323.28 559.93 331.93 C 559.95 398.97 559.92 466.02 559.95 533.07 C 560.35 538.29 556.29 543.55 551.00 543.99 C 470.33 544.02 389.65 543.99 308.98 544.01 C 304.36 543.81 300.04 539.73 299.99 535.02 C 300.02 499.02 299.95 463.01 300.02 427.01 C 300.86 422.64 304.94 419.92 307.74 416.75 C 319.08 404.75 330.20 392.54 341.50 380.49 C 347.02 374.68 352.04 367.45 360.10 365.06 C 367.72 362.55 376.32 365.58 381.62 371.37 C 391.96 382.36 402.59 393.08 413.20 403.80 C 415.10 405.69 417.83 407.55 420.63 406.70 C 425.21 405.47 427.88 401.24 430.97 397.99 C 455.25 371.29 479.91 344.94 504.45 318.48 C 509.20 312.73 514.80 307.06 522.31 305.28 Z" />
<path fill="#1f68a5" opacity="1.00" d=" M 592.36 341.34 C 594.48 340.58 596.78 340.59 599.01 340.51 C 630.34 340.61 661.66 340.52 692.99 340.57 C 695.69 340.71 698.64 340.57 701.00 342.13 C 704.61 344.34 706.24 348.85 706.04 352.94 C 705.91 357.54 706.82 362.76 703.71 366.64 C 701.29 370.03 696.82 370.51 692.99 370.45 C 660.99 370.40 628.99 370.45 596.99 370.42 C 591.88 370.73 586.77 367.11 586.08 361.91 C 585.80 357.64 585.81 353.35 586.05 349.09 C 586.63 345.65 589.08 342.57 592.36 341.34 Z" />
<path fill="#1f68a5" opacity="1.00" d=" M 594.28 398.22 C 604.82 397.68 615.43 398.16 626.00 398.00 C 649.03 398.01 672.06 397.98 695.09 398.01 C 700.32 397.86 705.17 401.91 705.90 407.09 C 706.15 410.72 706.06 414.37 705.97 418.01 C 705.75 423.52 700.58 428.33 695.05 428.02 C 662.35 427.99 629.65 427.99 596.95 428.02 C 593.10 428.11 589.20 426.08 587.35 422.67 C 584.95 418.51 586.24 413.50 585.93 408.94 C 585.49 403.91 589.44 399.23 594.28 398.22 Z" />
<path fill="#1f68a5" opacity="1.00" d=" M 594.39 456.50 C 595.87 456.12 597.40 456.02 598.94 456.00 C 630.31 456.04 661.69 456.02 693.06 456.02 C 697.16 456.01 701.82 457.26 704.10 460.97 C 706.88 465.14 705.88 470.37 706.01 475.08 C 706.07 478.92 704.07 482.73 700.84 484.81 C 698.20 486.47 694.98 486.34 691.99 486.42 C 660.33 486.31 628.66 486.45 596.99 486.34 C 591.90 486.65 586.92 482.98 586.07 477.90 C 585.78 473.92 585.89 469.93 585.98 465.95 C 586.14 461.35 589.86 457.25 594.39 456.50 Z" />
<path fill="#1f68a5" opacity="1.00" d=" M 592.35 514.28 C 594.48 513.54 596.77 513.47 599.01 513.45 C 619.67 513.57 640.34 513.46 661.00 513.51 C 664.30 513.44 667.71 514.54 669.84 517.17 C 672.88 520.29 672.57 524.96 672.62 528.99 C 672.48 532.57 672.63 536.51 670.49 539.58 C 668.57 542.24 665.36 544.08 662.05 544.02 C 640.34 543.99 618.63 544.00 596.92 544.02 C 591.71 544.28 586.71 540.13 586.03 534.97 C 585.86 530.98 585.89 526.98 585.98 522.99 C 586.12 519.16 588.76 515.60 592.35 514.28 Z" />
</g>
<g id="#181f25ff">
<path fill="#181f25" opacity="1.00" d=" M 288.44 683.50 C 296.31 682.23 304.78 687.14 307.17 694.84 C 310.12 702.83 305.27 712.45 297.37 715.35 C 291.68 717.44 284.80 716.86 279.97 713.01 C 273.26 708.17 271.73 697.92 276.11 691.06 C 278.67 686.72 283.55 684.17 288.44 683.50 Z" />
<path fill="#181f25" opacity="1.00" d=" M 791.98 684.69 C 801.82 684.72 811.66 684.69 821.50 684.69 C 821.20 714.87 821.77 745.07 821.18 775.25 C 834.19 760.16 847.08 744.96 860.22 729.98 C 871.35 730.04 882.49 729.97 893.63 730.01 C 892.19 732.96 889.38 734.87 887.32 737.35 C 875.20 750.89 862.69 764.09 850.80 777.82 C 862.10 794.02 872.97 810.52 884.14 826.81 C 887.17 831.53 890.69 835.92 893.48 840.79 C 882.37 840.72 871.27 840.61 860.17 840.83 C 847.09 822.53 834.50 803.86 821.22 785.72 C 821.64 804.09 821.39 822.48 821.36 840.86 C 811.57 840.66 801.77 840.69 791.98 840.85 C 792.02 788.80 792.00 736.74 791.98 684.69 Z" />
<path fill="#181f25" opacity="1.00" d=" M 151.07 687.28 C 167.38 687.50 183.69 687.26 200.01 687.46 C 209.45 687.69 219.04 687.96 228.10 690.90 C 237.17 693.76 246.09 698.36 252.17 705.86 C 261.21 717.26 263.43 732.85 261.05 746.90 C 259.64 757.44 254.69 767.62 246.76 774.79 C 237.39 783.06 225.21 787.66 212.86 788.90 C 202.54 789.30 192.21 789.18 181.90 789.17 C 181.73 806.36 181.85 823.56 181.85 840.77 C 171.58 840.76 161.32 840.70 151.06 840.78 C 151.05 789.61 151.04 738.44 151.07 687.28 M 181.80 713.92 C 181.81 730.38 181.86 746.84 181.80 763.30 C 191.12 763.17 200.52 763.53 209.78 762.45 C 218.63 761.38 227.04 755.29 229.16 746.36 C 230.93 738.39 231.06 729.01 225.70 722.31 C 221.20 716.77 213.92 714.70 207.09 714.06 C 198.66 713.91 190.23 713.96 181.80 713.92 Z" />
<path fill="#181f25" opacity="1.00" d=" M 445.97 687.24 C 464.38 687.63 482.80 687.01 501.20 687.57 C 515.28 687.91 529.90 691.05 541.32 699.72 C 550.49 706.58 556.06 717.61 557.14 728.92 C 559.13 744.31 555.56 761.11 544.74 772.70 C 534.83 782.66 521.00 788.23 507.06 789.02 C 497.05 789.27 487.03 789.22 477.01 789.15 C 477.00 806.37 476.97 823.60 477.02 840.82 C 466.68 840.70 456.32 840.65 445.97 840.84 C 446.02 789.64 446.02 738.44 445.97 687.24 M 477.00 713.81 C 477.00 730.31 476.99 746.81 477.01 763.32 C 485.37 763.41 493.73 763.08 502.10 762.92 C 509.10 762.17 516.62 759.88 521.04 754.02 C 526.85 746.19 527.48 735.13 523.78 726.27 C 520.18 718.34 511.29 714.71 503.09 714.05 C 494.39 713.82 485.70 713.90 477.00 713.81 Z" />
<path fill="#181f25" opacity="1.00" d=" M 576.51 742.48 C 583.95 734.12 595.01 729.85 605.98 728.89 C 618.96 727.48 632.87 728.93 644.20 735.86 C 653.56 741.48 658.89 752.04 660.29 762.62 C 661.30 767.34 660.95 772.19 661.00 777.00 C 661.00 798.26 660.99 819.53 661.01 840.79 C 652.05 840.76 643.10 840.65 634.15 840.87 C 633.17 836.29 632.73 831.63 632.90 826.96 C 627.47 834.63 619.14 840.22 609.80 841.75 C 598.35 843.49 585.67 842.90 575.75 836.29 C 567.86 831.38 562.95 822.24 562.85 812.99 C 562.26 804.12 563.35 794.38 569.58 787.53 C 577.39 778.67 589.69 776.19 600.91 775.03 C 611.35 774.91 621.75 773.66 632.21 773.99 C 631.97 768.30 632.81 761.86 628.80 757.19 C 623.58 750.50 614.16 750.25 606.49 751.37 C 600.09 752.59 595.47 757.97 593.73 764.03 C 584.42 764.37 575.18 762.94 565.89 763.00 C 568.27 755.66 571.17 748.22 576.51 742.48 M 596.24 796.23 C 589.18 801.39 588.94 813.74 596.37 818.68 C 600.38 821.42 605.42 821.13 610.05 820.90 C 617.41 819.87 625.36 817.01 629.47 810.39 C 632.94 804.87 631.77 798.13 632.83 791.99 C 625.18 792.07 617.54 791.89 609.89 792.07 C 605.16 792.59 600.12 793.22 596.24 796.23 Z" />
<path fill="#181f25" opacity="1.00" d=" M 686.69 749.69 C 694.87 737.76 708.68 730.29 722.96 728.93 C 736.55 727.48 751.20 729.26 762.61 737.32 C 771.83 743.77 777.61 754.09 780.20 764.87 C 770.55 765.98 760.91 767.30 751.23 768.09 C 749.55 762.91 746.73 757.84 742.02 754.88 C 733.33 749.46 720.93 751.61 714.23 759.26 C 708.79 765.08 706.72 773.16 706.05 780.91 C 705.91 789.08 705.49 797.57 708.77 805.27 C 711.82 813.41 720.14 819.49 728.95 819.00 C 734.89 819.51 741.21 817.82 745.34 813.34 C 748.84 810.18 750.31 805.60 751.71 801.26 C 761.18 802.75 770.67 804.24 780.21 805.21 C 777.64 817.18 770.58 828.52 759.96 834.91 C 748.75 841.98 734.92 843.52 721.98 842.10 C 708.38 840.89 695.08 834.14 687.08 822.91 C 679.15 812.38 676.12 798.97 675.98 785.99 C 676.24 773.26 679.10 760.16 686.69 749.69 Z" />
<path fill="#181f25" opacity="1.00" d=" M 276.18 730.03 C 286.12 729.97 296.06 730.03 305.99 730.00 C 305.93 766.92 306.04 803.85 305.96 840.77 C 296.04 840.73 286.12 840.74 276.21 840.74 C 276.24 803.84 276.26 766.93 276.18 730.03 Z" />
<path fill="#181f25" opacity="1.00" d=" M 321.33 730.01 C 332.16 729.98 342.99 730.02 353.82 729.99 C 361.42 741.16 368.99 752.35 376.77 763.40 C 384.19 752.26 391.31 740.90 398.98 729.93 C 409.19 730.12 419.41 729.95 429.62 730.02 C 417.53 748.37 404.17 765.89 391.71 784.00 C 404.88 803.12 418.95 821.61 432.07 840.76 C 421.13 840.68 410.20 840.67 399.26 840.78 C 390.95 828.55 383.24 815.92 374.63 803.91 C 367.28 816.60 358.58 828.43 350.51 840.67 C 339.89 840.79 329.28 840.67 318.66 840.73 C 331.89 821.63 345.96 803.10 359.24 784.03 C 346.84 765.86 333.64 748.23 321.33 730.01 Z" />
</g>
</svg>
